<svg width="32" height="32" viewBox="0 0 32 32" fill="none" xmlns="http://www.w3.org/2000/svg">
  <!-- Background -->
  <rect width="32" height="32" rx="6" fill="#006AFF"/>
  
  <!-- Flatt Cube Logo (simplified for small size) -->
  <g transform="translate(8, 6)">
    <path d="M8 2C8.5 2.2 12.7 5.4 13.2 5.8C14.1 6.6 15.9 7.9 16.8 8.9V20.8L8 26.8C6.4 25.8 4.9 24.6 3.3 23.7L-0.5 21.3C-1.1 20.9 -1.6 20.5 -2.2 20.8L-2.2 10.9C-2.2 10.2 -2.2 9.6 -2.2 8.9C-1.6 8.5 -0.9 8.2 0 7.9L7.3 3.2C7.6 3 7.8 2.8 8 2ZM8 4.4C7.4 4.8 6.8 5.2 6.2 5.5L2.7 7.9C2 8.4 1.3 8.8 0.5 9.3C1.8 10.4 3.3 11.1 4.6 11.9C5.2 11.5 5.8 11 6.4 10.6L8.4 9.3C8.6 9.1 8.8 8.9 8.8 8.9V10.9C8.2 11.2 7.6 11.4 7 11.7L5.5 12.5C5.2 12.7 4.9 12.8 4.7 13C5.2 13.3 7.9 14.9 8 14.9C9.3 14.1 10.8 13 12.1 12.3C11.4 11.8 10.5 11.3 9.6 10.8C8.6 10.3 7.5 9.6 8 9.3C8 8.7 8 8.1 8 8.9C8.4 9.1 8.8 9.3 9.1 9.5L11.3 10.7C11.6 10.9 11.9 11.1 12.2 11.4C12.5 11.2 12.8 10.9 13 10.7L14.4 9.8C13.7 9.3 12.9 8.7 12.1 8.2L8.4 4.4C8.2 4.2 8.1 4.1 8 4.4ZM14.8 16.8C14.1 17.3 13.3 17.7 12.5 18.2L10.3 19.6C9.2 20.2 8 20.8 6.9 21.4C6.9 21.9 6.9 24.2 6.9 24.2C7.5 23.9 8.1 23.5 8.6 23.1L14.8 19.7L14.8 17.2C14.8 16.9 14.8 16.5 14.8 16.8ZM3.6 13.1V17.2L5.5 18.2C6 18.5 6.4 18.8 6.8 19.1C6.8 19.6 6.8 20.1 6.8 20.6C5.8 20.1 4.7 19.3 3.6 18.7V23.4C3.8 23.5 4 23.6 4.1 23.7C5.3 24.4 6.4 25.1 7.6 25.9V16.8L5.1 15.2C4.5 14.8 3.9 14.5 3.6 13.1ZM0.8 10.5V19.7L2 20.4C2.3 20.6 2.6 20.8 2.9 21V12.1C2.1 11.6 1 10.9 0.8 10.5ZM14.8 10.5C14.4 10.8 13.9 11.2 13.4 11.5L9.2 14.1C8.9 14.3 8.6 14.4 8 16.8L8 18.2C8 18.5 8 18.8 8 19C8.8 18.6 9.5 18.1 10.2 17.7L13.1 16C13.7 15.6 14.3 15.1 14.8 14.6C14.8 14.2 14.8 10.8 14.8 10.5Z" fill="white"/>
  </g>
</svg> 