<svg width="300" height="300" viewBox="0 0 300 300" fill="none" xmlns="http://www.w3.org/2000/svg">
  <!-- Background Circle -->
  <circle cx="150" cy="150" r="150" fill="#006AFF"/>
  
  <!-- Flatt Cube Logo -->
  <g transform="translate(90, 60)">
    <path d="M60 10C63 11 95 27 99 29C106 33 119 40 126 45V120L60 160C53 156 47 152 40 148L5 125C2 123 0 121 -3 120L-3 55C-3 52 -3 49 -3 45C0 43 3 42 7 40L55 15C57 14 58 13 60 10ZM60 22C57 23 54 25 51 26L20 42C17 44 14 46 11 48C17 52 23 55 29 58C32 56 35 54 38 52L57 42C58 41 59 40 60 40V51C57 52 54 53 51 55L41 61C40 62 38 62 37 63C39 64 59 76 60 76C67 72 75 67 82 63C79 61 75 59 72 57C68 55 64 52 60 51C60 47 60 44 60 40C62 41 64 42 66 43L85 54C87 55 89 56 91 58C93 57 95 55 97 54L108 48C103 45 98 42 93 39L63 22C62 21 61 21 60 22ZM111 86C107 89 103 91 99 94L77 107C72 110 67 113 62 116C62 119 62 142 62 142C65 141 68 139 71 137L111 114L111 92C111 91 111 87 111 86ZM34 72V92L46 99C49 100 51 102 54 103C54 107 54 111 54 115C47 112 40 107 34 103V127C35 127 36 128 37 129C44 133 50 137 57 142V86L43 78C40 76 37 75 34 72ZM8 56V114L17 119C19 120 21 121 23 122V66C18 63 11 58 8 56ZM111 56C108 57 105 59 102 61L69 80C67 81 65 82 62 86L62 99C62 101 62 103 62 105C67 102 71 100 75 97L98 84C102 81 106 78 111 75C111 73 111 57 111 56Z" fill="white"/>
  </g>
  
  <!-- Flatt Text -->
  <g transform="translate(150, 200)">
    <text x="0" y="0" textAnchor="middle" fill="white" fontSize="32" fontWeight="bold" fontFamily="system-ui, -apple-system, sans-serif">
      flatt
    </text>
  </g>
</svg> 