<svg width="132" height="147" viewBox="0 0 132 147" fill="none" xmlns="http://www.w3.org/2000/svg">
<g filter="url(#filter0_d_1065_678)">
<path d="M65.8559 4.74219C67.6164 4.96413 100.706 24.5821 104.128 26.5027C110.607 30.1388 121.313 35.486 127.103 39.881V106.722L66.1339 142.256C60.7415 139.44 55.5569 136.134 50.3037 133.069L11.9678 110.815C9.58105 109.436 7.20753 108.015 4.77315 106.722L4.7723 47.4034C4.77144 44.8996 4.70717 42.3835 4.77315 39.881C6.8951 38.4069 9.35119 37.2159 11.5945 35.9185L60.1843 7.98666C62.0709 6.90202 63.9332 5.76179 65.8559 4.74219ZM66.1339 15.163C63.6067 16.2731 61.2131 17.8728 58.8171 19.2472L26.8865 37.6714C24.2691 39.1672 21.5534 40.5557 18.9913 42.1379C24.0503 45.7114 29.8283 48.0313 35.044 51.3076C37.7061 49.911 40.272 48.2892 42.869 46.7734L61.5818 35.9764C62.5553 35.4158 63.5539 34.7551 64.6083 34.3618V44.8771C62.3424 46.2758 59.9898 47.5379 57.6784 48.8592L47.6493 54.6929C46.4549 55.3961 45.2081 56.0512 44.0375 56.7885C45.781 57.748 66.0589 69.186 66.1339 69.1784C72.7287 65.241 80.9194 60.1176 87.719 56.7885C84.7453 54.6465 81.2327 52.8494 78.0568 50.9969C74.4982 48.9213 70.8639 46.5746 67.1052 44.8771C67.0984 41.3738 67.0656 37.8646 67.1052 34.3618C68.8905 34.9109 70.72 36.2207 72.3418 37.1444L91.5006 48.1028C93.3812 49.1542 95.3435 50.1289 97.1467 51.3076C98.8119 50.2141 100.625 49.2836 102.357 48.2981L113.165 42.1379C108.249 39.549 103.487 36.6523 98.6803 33.8685L68.544 16.577C67.8429 16.1731 66.8758 15.3903 66.1339 15.163ZM117.77 77.3976C114.133 79.9312 110.047 81.962 106.23 84.2189L84.4354 96.8782C79.8139 99.5297 75.141 102.116 70.597 104.899C70.5974 107.21 70.4676 128.621 70.597 128.893C73.454 127.601 76.166 125.892 78.846 124.269L117.77 101.489L117.766 83.2007C117.766 82.0071 117.98 78.3136 117.77 77.3976ZM39.0947 64.6902V82.0327L51.0184 88.894C53.5448 90.3553 56.1026 91.7775 58.574 93.3303C58.5757 96.7999 58.7264 100.332 58.574 103.793C52.2644 100.833 45.3477 96.0452 39.0947 92.6007V116.04C40.2001 116.447 41.2596 117.156 42.2761 117.75C48.6947 121.428 54.9754 125.403 61.4979 128.893V77.3976L47.7144 69.4606C44.8969 67.8337 42.0467 66.0459 39.0947 64.6902ZM14.0833 50.0936V101.489L23.2794 106.743C25.4197 107.988 27.5425 109.32 29.7351 110.468V59.036C25.3933 56.4441 18.6473 52.0644 14.0833 50.0936ZM117.77 50.0936C114.973 51.6158 112.24 53.2708 109.475 54.8517L76.2924 73.9633C74.3897 75.0811 72.4129 76.1431 70.597 77.3976L70.5906 88.7114C70.5893 90.4306 70.4361 92.3083 70.597 94.0126C74.7217 91.9371 78.7115 89.4895 82.7093 87.1803L105.629 73.9152C109.66 71.5906 113.64 69.1362 117.77 66.9939C117.787 65.0805 117.929 50.6108 117.77 50.0936Z" fill="#006AFF"/>
</g>
<defs>
<filter id="filter0_d_1065_678" x="0.283515" y="0.282294" width="131.28" height="146.432" filterUnits="userSpaceOnUse" color-interpolation-filters="sRGB">
<feFlood flood-opacity="0" result="BackgroundImageFix"/>
<feColorMatrix in="SourceAlpha" type="matrix" values="0 0 0 0 0 0 0 0 0 0 0 0 0 0 0 0 0 0 127 0" result="hardAlpha"/>
<feOffset/>
<feGaussianBlur stdDeviation="2.22995"/>
<feComposite in2="hardAlpha" operator="out"/>
<feColorMatrix type="matrix" values="0 0 0 0 0 0 0 0 0 0 0 0 0 0 0 0 0 0 0.08 0"/>
<feBlend mode="normal" in2="BackgroundImageFix" result="effect1_dropShadow_1065_678"/>
<feBlend mode="normal" in="SourceGraphic" in2="effect1_dropShadow_1065_678" result="shape"/>
</filter>
</defs>
</svg>
